<svg xmlns="http://www.w3.org/2000/svg" width="150" viewBox="0 0 526.29 160.69"><defs><style>.cls-1{fill:#f6df33;}</style></defs><title>LogoFretPal</title><g id="Calque_2" data-name="Calque 2"><g id="Calque_1-2" data-name="Calque 1"><path class="cls-1" d="M80.34,0a80.35,80.35,0,1,0,80.35,80.34A80.34,80.34,0,0,0,80.34,0Zm53.48,122.28H107.48l-.15-.23a3.42,3.42,0,0,0,1-.58c2.46-2.12,4.39-4.85,6.79-7.6-4.9-4.61-9.71-9.15-14.71-13.87,4.25-4,8.37-7.92,12.55-11.86l14.94,14c2-2.61,4.77-4.81,5.81-7.44l.15.09Z"/><path d="M99.82,27.79a11.34,11.34,0,0,1,11.32,11.55,11.53,11.53,0,1,1-23-.17C88.11,32.59,93.1,27.75,99.82,27.79Z"/><path d="M60.18,55.06a7.71,7.71,0,0,1-7.6,8,8,8,0,0,1-7.91-7.79,7.83,7.83,0,0,1,8-8A7.58,7.58,0,0,1,60.18,55.06Z"/><path d="M133.91,94a5.53,5.53,0,0,1-.24.72c-1,2.63-3.78,4.83-5.81,7.44l-14.94-14c-4.18,3.94-8.3,7.84-12.55,11.86,5,4.72,9.81,9.26,14.71,13.87-2.4,2.75-4.33,5.48-6.79,7.6a3.42,3.42,0,0,1-1,.58,13.52,13.52,0,0,1-4.1.72q-21.57,1.55-33.44-16.61c-.21-.32-.49-.6-1-1.16a23.36,23.36,0,0,1-20.93,6.76,22.07,22.07,0,0,1-14.15-8.43A23.44,23.44,0,0,1,35.5,72.55c7.66-7.68,21.45-10.26,32.81-.28,1.11-1.65,2.11-3.37,3.33-4.92,9.17-11.65,21.19-16.49,35.63-13.26C122,57.38,131,67.06,134,81.8A27.7,27.7,0,0,1,133.91,94Z"/><path d="M252.32,76.8c3.91,4.84,7.95,9.58,11.68,14.56,1.56,2.07,2.94,4.88,0,6.93a6.57,6.57,0,0,1-8.39-.47,17.78,17.78,0,0,1-2.84-3.26c-2.2-3-4.43-5.88-6.47-8.94-3.87-5.8-9-8.66-16.79-7.1,0,4.63,0,9.55,0,14.48,0,3.2-1.06,5.71-4.58,6.35-4.38.8-7.09-1.44-7.11-6q-.09-17.55,0-35.1c0-4.32,1.63-6.1,5.9-6.15,8.54-.12,17.1-.27,25.62.13A25.19,25.19,0,0,1,259,55c4.07,2,5.88,5.78,5.64,10.44-.23,4.43-2.58,7.34-6.43,9.12C256.09,75.57,253.84,76.24,252.32,76.8ZM229.71,72c5.84-.29,11.33-.42,16.78-.91,3.36-.3,6.29-1.77,6.19-5.78s-3-5.57-6.34-5.77c-5.46-.33-11-.09-16.63-.09Z"/><path d="M288,59.15v11h12.13c3.55,0,7.1-.08,10.64,0,2.75.08,6.58-.74,6.45,3.61s-3.87,3.44-6.66,3.46c-7.34,0-14.69,0-22.35,0V91.5h25.11c1.31,0,2.84-.34,3.88.2,1.31.69,3,2.09,3.09,3.25s-1.68,2.48-2.89,3.41c-.6.46-1.77.24-2.68.24q-15.57,0-31.15,0c-5.92,0-7.38-1.51-7.39-7.51q0-16.16,0-32.32c0-5,1.66-6.67,6.61-6.7,10.51-.07,21,0,31.53,0,2.45,0,5.17.25,5.28,3.38.12,3.44-2.72,3.7-5.32,3.71C305.65,59.18,297,59.15,288,59.15Z"/><path d="M449.2,51.26c4-.23,6.81,1.64,8.56,5.12,5.77,11.48,11.54,23,17.22,34.48,1.39,2.81,2.38,5.78-1.32,7.82-3.24,1.8-7.36.93-8.49-2.9-2.32-7.86-7.53-9.3-14.53-8.23a6.84,6.84,0,0,1-2,0c-7.11-.93-12.85,0-15.14,8.4-1,3.78-4.8,4.5-8.1,2.76-3.54-1.86-2.8-4.6-1.45-7.39Q432.29,74.15,440.64,57C442.37,53.44,444.91,51,449.2,51.26Zm-8.27,28.9h16.78c-2.83-6.36-5.48-12.35-8.5-19.16C446.25,67.86,443.67,73.82,440.93,80.16Z"/><path d="M392.06,80.46c0,4.44,0,8.48,0,12.52-.05,4.33-1.89,6.36-5.69,6.42-4.08.06-6-1.9-6-6.52-.05-11.44,0-22.88-.05-34.32,0-3.79,1.5-6.37,5.31-6.4,8.66-.07,17.37-.21,26,.58,8.1.75,12.62,5.93,12.81,13,.2,7.23-4.3,12.4-12.39,13.91a58.92,58.92,0,0,1-8.61.82C399.77,80.56,396.11,80.46,392.06,80.46Zm.19-21.61V73.67c5.13-.41,10.05-.55,14.89-1.27a5.85,5.85,0,0,0,5.3-6.3,5.89,5.89,0,0,0-5.5-6.14C402.19,59.4,397.4,59.22,392.25,58.85Z"/><path d="M180.44,59.15V71h19.38c2.6,0,5.06.66,5,3.69-.06,2.75-2.41,3.43-4.87,3.42H180.23c0,5.29.05,10.24,0,15.19-.06,4.23-1.7,6-5.46,6.12-4,.12-6-1.75-6-6q-.12-17.73,0-35.45c0-4.06,1.71-5.83,5.76-5.87,9.85-.12,19.7-.05,29.54,0,2.45,0,4.78.78,4.78,3.53s-2.32,3.55-4.77,3.55C196.29,59.16,188.55,59.15,180.44,59.15Z"/><path d="M343.08,59.94c-4.81,0-9,0-13.19,0-2.82,0-5.58-.56-5.48-4.1.09-3.26,2.81-3.76,5.42-3.77q19.11-.06,38.2,0c2.71,0,5.26.82,5.19,4s-2.73,3.8-5.39,3.83c-4.3,0-8.6,0-13.36,0V76.3q0,8.07,0,16.15c0,5.16-1.53,7-5.77,7s-5.6-1.86-5.6-7.14q0-13.77,0-27.56Z"/><path d="M496.68,90.71h8.08c5.52,0,11-.06,16.54,0,2.56,0,5,1,5,3.91s-2.41,3.72-4.94,3.94c-.39,0-.78,0-1.18,0-9.45,0-18.9,0-28.36,0-5.06,0-6.64-1.57-6.66-6.57q-.09-17.13,0-34.26c0-4.7,1.81-6.57,5.91-6.51s5.6,1.86,5.61,6.73q0,14,0,28Z"/></g></g></svg>