<svg id="Calque_2" data-name="Calque 2" xmlns="http://www.w3.org/2000/svg" width="150" viewBox="0 0 150 45.8">
  <defs>
    <style>
      .cls-1 {
        fill: #f6df33;
      }

      .cls-2 {
        fill: #05073c;
      }
    </style>
  </defs>
  <g id="Calque_1-2" data-name="Calque 1">
    <g id="Calque_2-2" data-name="Calque 2">
      <g id="Calque_1-2" data-name="Calque 1-2">
        <path class="cls-1" d="M22.9,0C10.25,0,0,10.25,0,22.9s10.25,22.9,22.9,22.9,22.9-10.25,22.9-22.9h0C45.8,10.25,35.55,0,22.9,0h0ZM38.14,34.85h-7.51l-.04-.07c.1-.04.2-.09.29-.17.7-.6,1.25-1.38,1.94-2.17-1.4-1.31-2.77-2.61-4.19-3.95,1.21-1.14,2.39-2.26,3.58-3.38l4.26,3.99c.57-.74,1.36-1.37,1.66-2.12l.04.03v7.84h-.03Z"/>
        <path class="cls-2" d="M28.45,7.92c1.79,0,3.23,1.45,3.23,3.24v.05c.12,1.81-1.26,3.37-3.07,3.49-1.81.12-3.37-1.26-3.49-3.07-.01-.16,0-.31,0-.47,0-1.88,1.41-3.25,3.33-3.24Z"/>
        <path class="cls-2" d="M17.15,15.69c.05,1.21-.9,2.23-2.11,2.28h-.05c-1.23-.01-2.22-.99-2.25-2.22s.95-2.25,2.18-2.28h.1c1.19.01,2.15.99,2.14,2.18v.04h-.01Z"/>
        <path class="cls-2" d="M38.17,26.79c-.02.07-.04.14-.07.21-.29.75-1.08,1.38-1.66,2.12l-4.26-3.99c-1.19,1.12-2.37,2.23-3.58,3.38,1.43,1.35,2.8,2.64,4.19,3.95-.68.78-1.23,1.56-1.94,2.17-.08.07-.18.13-.29.17-.38.13-.77.2-1.17.21-4.1.29-7.28-1.28-9.53-4.73-.06-.09-.14-.17-.29-.33-1.54,1.6-3.78,2.32-5.97,1.93-1.6-.25-3.05-1.11-4.03-2.4-2.05-2.64-1.83-6.4.52-8.78,2.18-2.19,6.11-2.92,9.35-.08.32-.47.6-.96.95-1.4,2.61-3.32,6.04-4.7,10.16-3.78,4.2.94,6.76,3.7,7.62,7.9.25,1.15.24,2.33-.03,3.48l.03-.03Z"/>
        <path class="cls-2" d="M71.91,21.88c1.11,1.38,2.27,2.73,3.33,4.15.44.59.84,1.39,0,1.98-.73.54-1.73.48-2.39-.13-.31-.28-.58-.59-.81-.93-.63-.86-1.26-1.68-1.84-2.55-1.1-1.65-2.57-2.47-4.79-2.02v4.13c0,.91-.3,1.63-1.31,1.81-1.25.23-2.02-.41-2.03-1.71-.02-3.33-.02-6.67,0-10,0-1.23.46-1.74,1.68-1.75,2.43-.03,4.87-.08,7.3.04.96.08,1.9.34,2.75.79,1.16.57,1.68,1.65,1.61,2.98-.07,1.26-.74,2.09-1.83,2.6-.6.29-1.25.48-1.68.64v-.03ZM65.47,20.52c1.66-.08,3.23-.12,4.78-.26.96-.09,1.79-.5,1.76-1.65s-.86-1.59-1.81-1.64c-1.56-.09-3.14-.03-4.74-.03v3.58h0Z"/>
        <path class="cls-2" d="M82.08,16.85v3.14h3.46c1.01,0,2.02-.02,3.03,0,.78.02,1.88-.21,1.84,1.03s-1.1.98-1.9.99h-6.37v4.07h7.16c.37,0,.81-.1,1.11.06.37.2.86.6.88.93s-.48.71-.82.97c-.17.13-.5.07-.76.07h-8.88c-1.69,0-2.1-.43-2.11-2.14v-9.21c0-1.43.47-1.9,1.88-1.91,3-.02,5.99,0,8.99,0,.7,0,1.47.07,1.5.96.03.98-.78,1.05-1.52,1.06h-7.49v-.02Z"/>
        <path class="cls-2" d="M128.03,14.61c1.14-.07,1.94.47,2.44,1.46,1.64,3.27,3.29,6.56,4.91,9.83.4.8.68,1.65-.38,2.23-.92.51-2.1.27-2.42-.83-.66-2.24-2.15-2.65-4.14-2.35-.19.03-.38.03-.57,0-2.03-.27-3.66,0-4.32,2.39-.29,1.08-1.37,1.28-2.31.79-1.01-.53-.8-1.31-.41-2.11,1.58-3.26,3.17-6.52,4.76-9.78.49-1.01,1.22-1.71,2.44-1.64h0ZM125.67,22.84h4.78c-.81-1.81-1.56-3.52-2.42-5.46-.84,1.96-1.58,3.65-2.36,5.46Z"/>
        <path class="cls-2" d="M111.74,22.93v3.57c-.01,1.23-.54,1.81-1.62,1.83-1.16.02-1.71-.54-1.71-1.86-.01-3.26,0-6.52-.01-9.78,0-1.08.43-1.82,1.51-1.82,2.47-.02,4.95-.06,7.41.17,2.31.21,3.6,1.69,3.65,3.71.06,2.06-1.23,3.53-3.53,3.96-.81.14-1.63.22-2.45.23-1.05.03-2.09,0-3.24,0h-.01ZM111.8,16.77v4.22c1.46-.12,2.86-.16,4.24-.36.91-.08,1.58-.88,1.51-1.8.04-.91-.66-1.69-1.57-1.75-1.35-.16-2.72-.21-4.19-.32h.01Z"/>
        <path class="cls-2" d="M51.43,16.85v3.38h5.52c.74,0,1.44.19,1.43,1.05-.02.78-.69.98-1.39.97h-5.62c0,1.51,0,2.92,0,4.33-.02,1.21-.48,1.71-1.56,1.74-1.14.03-1.71-.5-1.71-1.71-.02-3.37-.02-6.74,0-10.1,0-1.16.49-1.66,1.64-1.67,2.81-.03,5.61-.01,8.42,0,.7,0,1.36.22,1.36,1.01s-.66,1.01-1.36,1.01h-6.74,0Z"/>
        <path class="cls-2" d="M97.78,17.08h-3.76c-.8,0-1.59-.16-1.56-1.17.03-.93.8-1.07,1.54-1.07,3.63-.01,7.26-.01,10.89,0,.77,0,1.5.23,1.48,1.14s-.78,1.08-1.54,1.09h-3.81v9.28c0,1.47-.44,2-1.64,2s-1.6-.53-1.6-2.03v-9.23h0Z"/>
        <path class="cls-2" d="M141.56,25.85h2.3c1.57,0,3.14-.02,4.71,0,.73,0,1.43.29,1.43,1.11s-.69,1.06-1.41,1.12h-8.42c-1.44,0-1.89-.45-1.9-1.87-.02-3.25-.02-6.51,0-9.76,0-1.34.52-1.87,1.68-1.86s1.6.53,1.6,1.92v9.34h0Z"/>
      </g>
    </g>
  </g>
</svg>